<?xml version="1.0" standalone="no"?>
<!DOCTYPE svg PUBLIC "-//W3C//DTD SVG 20010904//EN"
 "http://www.w3.org/TR/2001/REC-SVG-20010904/DTD/svg10.dtd">
<svg version="1.0" xmlns="http://www.w3.org/2000/svg"
 width="95.000000pt" height="95.000000pt" viewBox="0 0 95.000000 95.000000"
 preserveAspectRatio="xMidYMid meet">

<g transform="translate(0.000000,95.000000) scale(0.100000,-0.100000)"
fill="#000000" stroke="none">
<path d="M468 683 c7 -3 16 -2 19 1 4 3 -2 6 -13 5 -11 0 -14 -3 -6 -6z"/>
<path d="M402 655 c-9 -13 -13 -32 -19 -80 -7 -52 8 -39 41 37 25 55 25 57 5
55 -11 -1 -23 -6 -27 -12z"/>
<path d="M523 620 c25 -59 47 -73 47 -29 0 18 -9 39 -25 54 -37 38 -45 30 -22
-25z"/>
<path d="M457 595 c-9 -20 -17 -38 -17 -40 0 -4 45 13 58 21 2 1 -3 14 -10 28
l-14 27 -17 -36z"/>
<path d="M447 526 c-32 -22 -36 -23 -53 -7 -18 15 -18 15 -1 -5 9 -11 23 -21
30 -22 6 -1 26 -4 42 -7 43 -9 72 14 56 43 -15 28 -30 28 -74 -2z"/>
<path d="M32 331 c-18 -52 -18 -61 -6 -61 8 0 13 4 9 9 -3 6 4 15 15 21 18 10
22 8 27 -9 3 -12 14 -21 25 -21 21 0 21 0 -7 80 -19 56 -40 50 -63 -19z m38
-2 c0 -5 -4 -9 -10 -9 -5 0 -10 7 -10 16 0 8 5 12 10 9 6 -3 10 -10 10 -16z"/>
<path d="M175 330 c0 -52 3 -60 19 -60 13 0 17 5 13 20 -3 11 -2 20 3 20 4 0
10 -9 13 -20 3 -12 14 -20 26 -20 20 0 21 1 6 24 -13 19 -14 29 -6 45 14 26
-9 51 -47 51 -26 0 -27 -2 -27 -60z m48 34 c7 -7 -2 -34 -12 -34 -4 0 -7 9 -8
20 -2 19 8 26 20 14z"/>
<path d="M305 380 c-3 -5 1 -10 9 -10 12 0 16 -11 16 -50 0 -38 4 -50 15 -50
11 0 15 12 15 50 0 38 4 50 15 50 8 0 15 5 15 10 0 6 -18 10 -39 10 -22 0 -43
-4 -46 -10z"/>
<path d="M438 330 l-3 -60 38 0 c20 0 37 4 37 9 0 5 -9 7 -20 4 -15 -4 -20 0
-20 15 0 11 6 23 13 26 10 5 10 7 0 12 -18 8 -16 34 3 34 8 0 12 5 9 10 -3 6
-17 10 -30 10 -21 0 -23 -5 -27 -60z"/>
<path d="M641 368 c-4 -13 -10 -29 -13 -37 -2 -9 -9 -2 -17 17 -21 50 -47 42
-50 -15 -1 -26 -4 -50 -7 -55 -3 -4 -1 -8 5 -8 5 0 13 14 16 32 l7 31 14 -31
c17 -41 31 -41 42 1 l8 32 7 -32 c4 -21 12 -33 23 -33 12 0 15 6 10 23 -3 12
-6 39 -6 60 0 43 -25 52 -39 15z"/>
<path d="M747 384 c-11 -11 -8 -114 3 -114 6 0 13 0 16 0 4 0 7 26 7 57 0 53
-10 73 -26 57z"/>
<path d="M836 374 c-22 -22 -20 -30 14 -55 34 -25 30 -44 -8 -34 -22 5 -24 4
-13 -9 17 -20 45 -20 65 0 22 21 20 31 -9 58 -29 27 -31 36 -9 36 8 0 12 5 9
10 -9 15 -31 12 -49 -6z"/>
</g>
</svg>
